<svg xmlns="http://www.w3.org/2000/svg" width="28.08" height="27.009" viewBox="0 0 28.08 27.009">
  <g id="Group_10921" data-name="Group 10921" transform="translate(0.282 0.26)">
    <g id="Group_10916" data-name="Group 10916" transform="translate(1.957 2.084)">
      <path id="Path_51" data-name="Path 51" d="M1250.452,1389.205a5.7,5.7,0,0,1-3.847-9.721l10.915-10.915a5.7,5.7,0,0,1,9.39,5.955" transform="translate(-1244.937 -1366.901)" fill="none" stroke="#131523" stroke-linecap="round" stroke-linejoin="round" stroke-width="0.5"/>
      <path id="Path_52" data-name="Path 52" d="M1247.189,1380.924a4.569,4.569,0,0,0,.292,3.359" transform="translate(-1244.765 -1365.732)" fill="none" stroke="#131523" stroke-linecap="round" stroke-linejoin="round" stroke-width="0.5"/>
      <path id="Path_53" data-name="Path 53" d="M1263.26,1371.193a4.571,4.571,0,0,0-2.581-2.169" transform="translate(-1243.625 -1366.724)" fill="none" stroke="#131523" stroke-linecap="round" stroke-linejoin="round" stroke-width="0.5"/>
      <path id="Path_54" data-name="Path 54" d="M1257.916,1379.338c-2.869-.621-5.738-4.062-5.738-6.522" transform="translate(-1244.333 -1366.408)" fill="none" stroke="#131523" stroke-linecap="round" stroke-linejoin="round" stroke-width="0.5"/>
    </g>
    <g id="Group_10917" data-name="Group 10917" transform="translate(0 0)" opacity="0.5">
      <path id="Path_55" data-name="Path 55" d="M1244.154,1379.723a3.637,3.637,0,0,1-.558-4.3l4.816-8.585a3.633,3.633,0,0,1,6.793,2.034" transform="translate(-1243.131 -1364.978)" fill="none" stroke="#131523" stroke-linecap="round" stroke-linejoin="round" stroke-width="0.5"/>
      <path id="Path_56" data-name="Path 56" d="M1252.6,1367.221a2.916,2.916,0,0,0-1.959-.885" transform="translate(-1242.505 -1364.864)" fill="none" stroke="#131523" stroke-linecap="round" stroke-linejoin="round" stroke-width="0.5"/>
      <path id="Path_57" data-name="Path 57" d="M1249.644,1373.04a5.123,5.123,0,0,1-3.569-2.909" transform="translate(-1242.885 -1364.548)" fill="none" stroke="#131523" stroke-linecap="round" stroke-linejoin="round" stroke-width="0.5"/>
    </g>
    <g id="Group_10918" data-name="Group 10918" transform="translate(8.15 16.102)">
      <path id="Path_58" data-name="Path 58" d="M1251.174,1382.519l-.506,3.168c-.256,1.6,2.861,3.431,6.962,4.085s7.631-.114,7.887-1.716l.217-1.359.289-1.809" transform="translate(-1250.653 -1379.618)" fill="none" stroke="#131523" stroke-linecap="round" stroke-linejoin="round" stroke-width="0.5"/>
      <ellipse id="Ellipse_12" data-name="Ellipse 12" cx="2.938" cy="7.518" rx="2.938" ry="7.518" transform="translate(0.057 5.802) rotate(-80.932)" fill="none" stroke="#131523" stroke-linecap="round" stroke-linejoin="round" stroke-width="0.5"/>
      <line id="Line_47" data-name="Line 47" y1="2.005" x2="3.724" transform="translate(6.137 3.128)" fill="none" stroke="#131523" stroke-linecap="round" stroke-linejoin="round" stroke-width="0.5"/>
    </g>
    <g id="Group_10920" data-name="Group 10920" transform="translate(18.154 11.583)" opacity="0.5">
      <g id="Group_10919" data-name="Group 10919">
        <path id="Path_59" data-name="Path 59" d="M1265.8,1383.689c2.383-2.313,3.584-4.943,2.679-5.875l-.767-.79-1.021-1.052" transform="translate(-1259.395 -1375.644)" fill="none" stroke="#131523" stroke-linecap="round" stroke-linejoin="round" stroke-width="0.5"/>
        <path id="Path_60" data-name="Path 60" d="M1259.888,1379.985a14.638,14.638,0,0,1,1.34-1.485c2.383-2.313,5.049-3.433,5.952-2.5s-.295,3.562-2.679,5.876" transform="translate(-1259.888 -1375.67)" fill="none" stroke="#131523" stroke-linecap="round" stroke-linejoin="round" stroke-width="0.5"/>
      </g>
      <line id="Line_48" data-name="Line 48" x1="0.128" y2="2.298" transform="translate(2.937 3.118)" fill="none" stroke="#131523" stroke-linecap="round" stroke-linejoin="round" stroke-width="0.5"/>
    </g>
  </g>
</svg>
