<svg xmlns="http://www.w3.org/2000/svg" width="29.286" height="25.239" viewBox="0 0 29.286 25.239">
  <g id="Group_10926" data-name="Group 10926" transform="translate(0.251 0.25)">
    <g id="Group_10923" data-name="Group 10923" transform="translate(15.012 13.792)" opacity="0.5">
      <g id="Group_10922" data-name="Group 10922">
        <path id="Path_61" data-name="Path 61" d="M1322.221,1377.517l3.275,3.145a4.076,4.076,0,0,1-.116,3.106l-1.268,1.384a4.071,4.071,0,0,1-3.082.391l-5.891-5.132" transform="translate(-1315.139 -1377.517)" fill="none" stroke="#131523" stroke-linecap="round" stroke-linejoin="round" stroke-width="0.5"/>
        <line id="Line_49" data-name="Line 49" y1="4.882" x2="4.466" transform="translate(5.883 3.138)" fill="none" stroke="#131523" stroke-linecap="round" stroke-linejoin="round" stroke-width="0.5"/>
        <path id="Path_62" data-name="Path 62" d="M1323.393,1384.709l1.114,1.018c.167.152.6-.05.966-.451s.53-.85.364-1l-1.114-1.02Z" transform="translate(-1314.451 -1377.039)" fill="none" stroke="#131523" stroke-linecap="round" stroke-linejoin="round" stroke-width="0.5"/>
        <line id="Line_50" data-name="Line 50" x1="1.262" y1="1.108" transform="translate(2.785 3.539)" fill="none" stroke="#131523" stroke-linecap="round" stroke-linejoin="round" stroke-width="0.5"/>
      </g>
    </g>
    <g id="Group_10925" data-name="Group 10925" transform="translate(1.759 0)">
      <g id="Group_10924" data-name="Group 10924">
        <path id="Path_63" data-name="Path 63" d="M1328.344,1374.911l-4.548-10.126-1.848,1.928,3.727,8.3Z" transform="translate(-1301.319 -1364.786)" fill="none" stroke="#131523" stroke-linecap="round" stroke-linejoin="round" stroke-width="0.5"/>
        <path id="Path_64" data-name="Path 64" d="M1305.611,1380.806l-.947-2.107c-.345-.768.5-3.4,1.062-3.676l17.671-8.458,3.727,8.3-18.06,7.59C1308.487,1382.694,1305.955,1381.573,1305.611,1380.806Z" transform="translate(-1302.767 -1364.637)" fill="none" stroke="#131523" stroke-linecap="round" stroke-linejoin="round" stroke-width="0.5"/>
        <line id="Line_51" data-name="Line 51" y1="0.415" x2="0.924" transform="translate(22.508 2.125)" fill="none" stroke="#131523" stroke-linecap="round" stroke-linejoin="round" stroke-width="0.5"/>
        <line id="Line_52" data-name="Line 52" y1="0.415" x2="0.924" transform="translate(23.189 3.641)" fill="none" stroke="#131523" stroke-linecap="round" stroke-linejoin="round" stroke-width="0.5"/>
        <line id="Line_53" data-name="Line 53" y1="0.415" x2="0.924" transform="translate(23.87 5.157)" fill="none" stroke="#131523" stroke-linecap="round" stroke-linejoin="round" stroke-width="0.5"/>
        <line id="Line_54" data-name="Line 54" y1="0.415" x2="0.924" transform="translate(24.551 6.673)" fill="none" stroke="#131523" stroke-linecap="round" stroke-linejoin="round" stroke-width="0.5"/>
        <line id="Line_55" data-name="Line 55" y1="0.415" x2="0.924" transform="translate(25.232 8.189)" fill="none" stroke="#131523" stroke-linecap="round" stroke-linejoin="round" stroke-width="0.5"/>
        <line id="Line_56" data-name="Line 56" x2="3.337" y2="7.43" transform="translate(2.973 10.38)" fill="none" stroke="#131523" stroke-linecap="round" stroke-linejoin="round" stroke-width="0.5"/>
        <path id="Path_65" data-name="Path 65" d="M1304.78,1377.717l-1.694.76c-.254.114-.236.7.038,1.312s.7,1.014.955.9l1.694-.762Z" transform="translate(-1302.906 -1363.708)" fill="none" stroke="#131523" stroke-linecap="round" stroke-linejoin="round" stroke-width="0.5"/>
        <line id="Line_57" data-name="Line 57" y1="4.164" x2="8.778" transform="translate(11.141 4.122)" fill="none" stroke="#131523" stroke-linecap="round" stroke-linejoin="round" stroke-width="0.5"/>
        <line id="Line_58" data-name="Line 58" y1="0.886" x2="1.868" transform="translate(7.68 9.065)" fill="none" stroke="#131523" stroke-linecap="round" stroke-linejoin="round" stroke-width="0.5"/>
      </g>
    </g>
    <path id="Path_66" data-name="Path 66" d="M1303,1382.453c-.739,4.6,10.789-1.129,10.1,3.133a5.448,5.448,0,0,1-1.623,2.466c-.233-2.847-10.908,1.738-10.163-2.9A4.086,4.086,0,0,1,1303,1382.453Z" transform="translate(-1301.283 -1363.313)" fill="none" stroke="#131523" stroke-linecap="round" stroke-linejoin="round" stroke-width="0.5"/>
  </g>
</svg>
