<svg xmlns="http://www.w3.org/2000/svg" width="27.496" height="28.011" viewBox="0 0 27.496 28.011">
  <g id="Group_10929" data-name="Group 10929" transform="translate(0.253 0.289)">
    <g id="Group_10927" data-name="Group 10927" transform="translate(16.482 6.696)" opacity="0.5">
      <path id="Path_67" data-name="Path 67" d="M1370.69,1386.9l.417,1.174c.383,1.08,2.936,1.159,5.7.177s4.693-2.654,4.31-3.734l-2.932-8.25a.925.925,0,0,0-.4-.488l-2.678-1.581" transform="translate(-1370.69 -1370.052)" fill="#f9fafc" stroke="#0d0c0c" stroke-linecap="round" stroke-linejoin="round" stroke-width="0.5"/>
      <path id="Path_68" data-name="Path 68" d="M1372.2,1375.9c2.291-.815,3.89-2.2,3.572-3.1l-.629-1.769" transform="translate(-1370.564 -1370.316)" fill="#f9fafc" stroke="#0d0c0c" stroke-linecap="round" stroke-linejoin="round" stroke-width="0.5"/>
      <path id="Path_69" data-name="Path 69" d="M1378.549,1377.88a6.141,6.141,0,0,1-2.911,2.084c-.214.076-.428.145-.638.206a.685.685,0,0,0-.452.887l1.159,3.263a.686.686,0,0,0,.828.432q.357-.1.724-.23a6.134,6.134,0,0,0,2.91-2.084Z" transform="translate(-1370.372 -1369.745)" fill="#f9fafc" stroke="#0d0c0c" stroke-linecap="round" stroke-linejoin="round" stroke-width="0.5"/>
      <path id="Path_70" data-name="Path 70" d="M1378.795,1379.088a4.8,4.8,0,0,1-1.662,1.482" transform="translate(-1370.153 -1369.645)" fill="#f9fafc" stroke="#0d0c0c" stroke-linecap="round" stroke-linejoin="round" stroke-width="0.5"/>
      <path id="Path_71" data-name="Path 71" d="M1379.386,1380.481a6.129,6.129,0,0,1-2.911,2.083" transform="translate(-1370.208 -1369.528)" fill="#f9fafc" stroke="#0d0c0c" stroke-linecap="round" stroke-linejoin="round" stroke-width="0.5"/>
      <path id="Path_72" data-name="Path 72" d="M1376.322,1377.145a6.619,6.619,0,0,1-3.07,1.715c-.209.062-.416.116-.619.163" transform="translate(-1370.528 -1369.806)" fill="#f9fafc" stroke="#0d0c0c" stroke-linecap="round" stroke-linejoin="round" stroke-width="0.5"/>
      <path id="Path_73" data-name="Path 73" d="M1371.968,1370.524c1.65-.325,2.974-.129,3.221.564.318.9-1.282,2.281-3.572,3.094" transform="translate(-1370.613 -1370.371)" fill="#f9fafc" stroke="#0d0c0c" stroke-linecap="round" stroke-linejoin="round" stroke-width="0.5"/>
    </g>
    <g id="Group_10928" data-name="Group 10928" transform="translate(0 0)">
      <path id="Path_74" data-name="Path 74" d="M1361.743,1370.814l-3.617,2.769a1.307,1.307,0,0,0-.493.812l-2.138,12.129c-.281,1.593,2.8,3.466,6.871,4.185s7.606.01,7.887-1.583l2.145-12.164a1.3,1.3,0,0,0-.154-.878l-2.185-3.8" transform="translate(-1355.477 -1363.638)" fill="#f9fafc" stroke="#0d0c0c" stroke-linecap="round" stroke-linejoin="round" stroke-width="0.5"/>
      <path id="Path_75" data-name="Path 75" d="M1360.068,1366.4l-.459,2.609c-.233,1.32,2.316,2.873,5.694,3.468s6.3.009,6.537-1.311l.46-2.61" transform="translate(-1355.133 -1364.006)" fill="#f9fafc" stroke="#0d0c0c" stroke-linecap="round" stroke-linejoin="round" stroke-width="0.5"/>
      <path id="Path_76" data-name="Path 76" d="M1371.248,1379.1a8.656,8.656,0,0,1-5.022.531c-.316-.055-.626-.119-.927-.192a.965.965,0,0,0-1.171.775l-.848,4.811a.965.965,0,0,0,.714,1.106c.339.085.689.158,1.048.222a8.663,8.663,0,0,0,5.022-.532Z" transform="translate(-1354.828 -1362.947)" fill="#f9fafc" stroke="#0d0c0c" stroke-linecap="round" stroke-linejoin="round" stroke-width="0.5"/>
      <path id="Path_77" data-name="Path 77" d="M1370.556,1380.884a6.78,6.78,0,0,1-3.07.662" transform="translate(-1354.475 -1362.798)" fill="#f9fafc" stroke="#0d0c0c" stroke-linecap="round" stroke-linejoin="round" stroke-width="0.5"/>
      <path id="Path_78" data-name="Path 78" d="M1370.344,1382.938a8.665,8.665,0,0,1-5.022.531" transform="translate(-1354.656 -1362.627)" fill="#f9fafc" stroke="#0d0c0c" stroke-linecap="round" stroke-linejoin="round" stroke-width="0.5"/>
      <path id="Path_79" data-name="Path 79" d="M1366.4,1376.858a7.118,7.118,0,0,0,2.131-.335" transform="translate(-1354.566 -1363.161)" fill="#f9fafc" stroke="#0d0c0c" stroke-linecap="round" stroke-linejoin="round" stroke-width="0.5"/>
      <path id="Path_80" data-name="Path 80" d="M1359.808,1374.874a9.331,9.331,0,0,0,4.576,1.915q.455.08.894.128" transform="translate(-1355.116 -1363.299)" fill="#f9fafc" stroke="#0d0c0c" stroke-linecap="round" stroke-linejoin="round" stroke-width="0.5"/>
      <ellipse id="Ellipse_13" data-name="Ellipse 13" cx="2.426" cy="6.21" rx="2.426" ry="6.21" transform="matrix(0.174, -0.985, 0.985, 0.174, 4.513, 4.779)" fill="#f9fafc" stroke="#0d0c0c" stroke-linecap="round" stroke-linejoin="round" stroke-width="0.5"/>
    </g>
  </g>
</svg>
