<svg xmlns="http://www.w3.org/2000/svg" width="26.18" height="27.013" viewBox="0 0 26.18 27.013">
  <g id="Group_10934" data-name="Group 10934" transform="translate(0.29 0.252)">
    <g id="Group_10931" data-name="Group 10931" transform="translate(5.635 8.648)" opacity="0.5">
      <g id="Group_10930" data-name="Group 10930">
        <path id="Path_81" data-name="Path 81" d="M1412.259,1376.161l-.713-1.4a.678.678,0,0,1,.3-.912l1.707-.775a.678.678,0,0,1,.912.3l.368.724" transform="translate(-1411.472 -1372.999)" fill="none" stroke="#131523" stroke-linecap="round" stroke-linejoin="round" stroke-width="0.5"/>
      </g>
      <path id="Path_82" data-name="Path 82" d="M1418.646,1378.266l-1.741-3.423a.868.868,0,0,0-1.344-.26l-2.93,2.562a.866.866,0,0,0-.2,1.046l1.172,2.276" transform="translate(-1411.4 -1372.885)" fill="none" stroke="#131523" stroke-linecap="round" stroke-linejoin="round" stroke-width="0.5"/>
    </g>
    <g id="Group_10933" data-name="Group 10933" transform="translate(0 0)">
      <g id="Group_10932" data-name="Group 10932" transform="translate(19.282)">
        <path id="Path_83" data-name="Path 83" d="M1429.592,1370.178l.581-3.287a1.224,1.224,0,0,0-.993-1.418l-3.356-.439a1.224,1.224,0,0,0-1.418.993l-.337,1.908" transform="translate(-1424.068 -1365.016)" fill="none" stroke="#131523" stroke-linecap="round" stroke-linejoin="round" stroke-width="0.5"/>
      </g>
      <path id="Path_84" data-name="Path 84" d="M1420.178,1379.833l1.769-10.033a1.566,1.566,0,0,1,2.184-1.156l6.406,2.881a1.564,1.564,0,0,1,.9,1.7l-2.194,12.442a3.173,3.173,0,0,1-2.574,2.574l-12.851,2.266a1.323,1.323,0,0,1-1.533-1.073l-.76-5.2a1.323,1.323,0,0,1,1.073-1.533l6.316-1.121a9.74,9.74,0,0,1,6.031.955" transform="translate(-1405.833 -1364.725)" fill="none" stroke="#131523" stroke-linecap="round" stroke-linejoin="round" stroke-width="0.5"/>
      <line id="Line_59" data-name="Line 59" x1="1.485" y1="0.262" transform="translate(0 20.2)" fill="none" stroke="#131523" stroke-linecap="round" stroke-linejoin="round" stroke-width="0.5"/>
      <line id="Line_60" data-name="Line 60" x1="1.591" y1="0.281" transform="translate(2.586 20.656)" fill="none" stroke="#131523" stroke-linecap="round" stroke-linejoin="round" stroke-width="0.5"/>
      <line id="Line_61" data-name="Line 61" x1="1.303" y2="0.338" transform="translate(0.502 23.132)" fill="none" stroke="#131523" stroke-linecap="round" stroke-linejoin="round" stroke-width="0.5"/>
      <line id="Line_62" data-name="Line 62" x1="1.296" y2="0.336" transform="translate(3.026 22.479)" fill="none" stroke="#131523" stroke-linecap="round" stroke-linejoin="round" stroke-width="0.5"/>
      <line id="Line_63" data-name="Line 63" x1="0.577" y2="0.587" transform="translate(2.537 25.821)" fill="none" stroke="#131523" stroke-linecap="round" stroke-linejoin="round" stroke-width="0.5"/>
      <line id="Line_64" data-name="Line 64" x1="0.731" y2="0.743" transform="translate(4.12 24.054)" fill="none" stroke="#131523" stroke-linecap="round" stroke-linejoin="round" stroke-width="0.5"/>
      <line id="Line_65" data-name="Line 65" x2="1.386" y2="7.778" transform="translate(10.047 17.396)" fill="none" stroke="#131523" stroke-linecap="round" stroke-linejoin="round" stroke-width="0.5"/>
    </g>
  </g>
</svg>
