<svg xmlns="http://www.w3.org/2000/svg" width="25.521" height="25.508" viewBox="0 0 25.521 25.508">
  <g id="Group_10939" data-name="Group 10939" transform="translate(0.354 0.208)">
    <g id="Group_10936" data-name="Group 10936" transform="translate(0.663 5.529)" opacity="0.5">
      <path id="Path_85" data-name="Path 85" d="M1470.837,1380.656l1.481.757c.225.115.878-.709,1.455-1.84s.864-2.141.639-2.255" transform="translate(-1455.532 -1370.249)" fill="none" stroke="#131523" stroke-linecap="round" stroke-linejoin="round" stroke-width="0.5"/>
      <path id="Path_86" data-name="Path 86" d="M1467.114,1373.624l-3.061-1.546c-.225-.115-.877.708-1.455,1.839s-.865,2.141-.639,2.257l1.889.965" transform="translate(-1456.279 -1370.687)" fill="none" stroke="#131523" stroke-linecap="round" stroke-linejoin="round" stroke-width="0.5"/>
      <path id="Path_87" data-name="Path 87" d="M1474.208,1380.6l2.084,1.132.66-1.291-2.084-1.132" transform="translate(-1455.251 -1370.083)" fill="none" stroke="#131523" stroke-linecap="round" stroke-linejoin="round" stroke-width="0.5"/>
      <line id="Line_66" data-name="Line 66" x1="4.822" y1="2.465" fill="none" stroke="#131523" stroke-linecap="round" stroke-linejoin="round" stroke-width="0.5"/>
      <g id="Group_10935" data-name="Group 10935" transform="translate(8.704 2.402)">
        <line id="Line_67" data-name="Line 67" x1="1.047" y2="2.048" fill="none" stroke="#131523" stroke-linecap="round" stroke-linejoin="round" stroke-width="0.5"/>
      </g>
      <path id="Path_88" data-name="Path 88" d="M1477.644,1381.635a11.827,11.827,0,0,0,1.112-2.536l-.73-.373-.014.027a26.559,26.559,0,0,0-2.488,4.866l-.014.028.729.373A11.759,11.759,0,0,0,1477.644,1381.635Z" transform="translate(-1455.143 -1370.132)" fill="none" stroke="#131523" stroke-linecap="round" stroke-linejoin="round" stroke-width="0.5"/>
      <path id="Path_89" data-name="Path 89" d="M1463,1373.232l-1.35-.69c-.081-.041-.295.215-.477.571s-.264.678-.183.72l1.35.69Z" transform="translate(-1456.355 -1370.648)" fill="none" stroke="#131523" stroke-linecap="round" stroke-linejoin="round" stroke-width="0.5"/>
    </g>
    <g id="Group_10938" data-name="Group 10938" transform="translate(0 0)">
      <path id="Path_90" data-name="Path 90" d="M1464.556,1385.555l11.163-11.163c.227-.226-.511-1.331-1.649-2.468s-2.241-1.874-2.468-1.648l-11.162,11.162" transform="translate(-1455.736 -1365.311)" fill="none" stroke="#131523" stroke-linecap="round" stroke-linejoin="round" stroke-width="0.5"/>
      <line id="Line_68" data-name="Line 68" x1="2.489" y2="2.489" transform="translate(18.406 2.754)" fill="none" stroke="#131523" stroke-linecap="round" stroke-linejoin="round" stroke-width="0.5"/>
      <line id="Line_69" data-name="Line 69" y1="2.542" x2="2.542" transform="translate(19.704 3.998)" fill="none" stroke="#131523" stroke-linecap="round" stroke-linejoin="round" stroke-width="0.5"/>
      <line id="Line_70" data-name="Line 70" x1="4.847" y2="4.847" transform="translate(0 20.1)" fill="none" stroke="#131523" stroke-linecap="round" stroke-linejoin="round" stroke-width="0.5"/>
      <g id="Group_10937" data-name="Group 10937" transform="translate(6.69 7.814)">
        <line id="Line_71" data-name="Line 71" x2="2.058" y2="2.058" transform="translate(6.326)" fill="none" stroke="#131523" stroke-linecap="round" stroke-linejoin="round" stroke-width="0.5"/>
        <line id="Line_72" data-name="Line 72" x2="2.058" y2="2.058" transform="translate(4.217 2.109)" fill="none" stroke="#131523" stroke-linecap="round" stroke-linejoin="round" stroke-width="0.5"/>
        <line id="Line_73" data-name="Line 73" x2="2.058" y2="2.058" transform="translate(2.109 4.217)" fill="none" stroke="#131523" stroke-linecap="round" stroke-linejoin="round" stroke-width="0.5"/>
        <line id="Line_74" data-name="Line 74" x2="2.058" y2="2.058" transform="translate(0 6.326)" fill="none" stroke="#131523" stroke-linecap="round" stroke-linejoin="round" stroke-width="0.5"/>
      </g>
      <path id="Path_91" data-name="Path 91" d="M1477.232,1368.02a14.873,14.873,0,0,0-2.621-2.326l-.733.733.028.028a33.589,33.589,0,0,0,4.891,4.891l.028.027.732-.732A14.876,14.876,0,0,0,1477.232,1368.02Z" transform="translate(-1454.616 -1365.69)" fill="none" stroke="#131523" stroke-linecap="round" stroke-linejoin="round" stroke-width="0.5"/>
      <ellipse id="Ellipse_14" data-name="Ellipse 14" cx="0.58" cy="2.911" rx="0.58" ry="2.911" transform="translate(4.293 16.538) rotate(-45)" fill="none" stroke="#131523" stroke-linecap="round" stroke-linejoin="round" stroke-width="0.5"/>
      <path id="Path_92" data-name="Path 92" d="M1461.468,1382.256l-1.357,1.356c-.081.081.143.438.5.8s.715.583.8.5l1.357-1.357Z" transform="translate(-1455.765 -1364.309)" fill="none" stroke="#131523" stroke-linecap="round" stroke-linejoin="round" stroke-width="0.5"/>
    </g>
  </g>
</svg>
