<svg xmlns="http://www.w3.org/2000/svg" width="27.6" height="26.726" viewBox="0 0 27.6 26.726">
  <g id="Group_10941" data-name="Group 10941" transform="translate(0.25 0.259)">
    <path id="Path_93" data-name="Path 93" d="M1516.54,1375.815l-3.6,1.989c-.466.256-4.073,3.3-3.816,3.769s4.757-.964,5.222-1.221l3.6-1.988" transform="translate(-1507.502 -1364.283)" fill="none" stroke="#131523" stroke-linecap="round" stroke-linejoin="round" stroke-width="0.5"/>
    <g id="Group_10940" data-name="Group 10940" transform="translate(10.785 12.775)" opacity="0.5">
      <path id="Path_94" data-name="Path 94" d="M1527.4,1384.762l.416-.772a4.084,4.084,0,0,0,.406-2.759l-.291-1.429" transform="translate(-1516.762 -1376.725)" fill="none" stroke="#131523" stroke-linecap="round" stroke-linejoin="round" stroke-width="0.5"/>
      <path id="Path_95" data-name="Path 95" d="M1519.178,1382.213l-1.509,2.8c-.464.863.947,2.524,3.152,3.713s4.369,1.454,4.834.593l.9-1.676" transform="translate(-1517.58 -1376.524)" fill="none" stroke="#131523" stroke-linecap="round" stroke-linejoin="round" stroke-width="0.5"/>
      <path id="Path_96" data-name="Path 96" d="M1526.209,1379.336c1.573.692,2.988.782,3.325.157l.76-1.411" transform="translate(-1516.861 -1376.869)" fill="none" stroke="#131523" stroke-linecap="round" stroke-linejoin="round" stroke-width="0.5"/>
      <path id="Path_97" data-name="Path 97" d="M1529.885,1376.962c.342.471.467.9.3,1.214-.288.535-1.369.546-2.663.1" transform="translate(-1516.751 -1376.962)" fill="none" stroke="#131523" stroke-linecap="round" stroke-linejoin="round" stroke-width="0.5"/>
      <path id="Path_98" data-name="Path 98" d="M1527.775,1384.447a4.436,4.436,0,0,1-2.527-.568c-.144-.079-.284-.161-.418-.245a.5.5,0,0,0-.7.183l-1.2,2.2a.5.5,0,0,0,.166.654c.151.1.308.191.472.28a4.437,4.437,0,0,0,2.527.568l.959-1.751Z" transform="translate(-1517.14 -1376.412)" fill="none" stroke="#131523" stroke-linecap="round" stroke-linejoin="round" stroke-width="0.5"/>
    </g>
    <path id="Path_99" data-name="Path 99" d="M1521.023,1379l1.788.435a5.11,5.11,0,0,0,3.68-.492l6.754-3.729c1.072-.59.713-3.293-.8-6.034s-3.61-4.485-4.681-3.894l-6.873,3.794a5.111,5.111,0,0,0-2.3,2.626l-.661,1.7" transform="translate(-1506.766 -1365.171)" fill="none" stroke="#131523" stroke-linecap="round" stroke-linejoin="round" stroke-width="0.5"/>
    <path id="Path_100" data-name="Path 100" d="M1518.767,1381.062l1.756-.97c.612-.338.661-1.51.219-2.952" transform="translate(-1506.697 -1364.173)" fill="none" stroke="#131523" stroke-linecap="round" stroke-linejoin="round" stroke-width="0.5"/>
    <path id="Path_101" data-name="Path 101" d="M1519.718,1374.693c-1.185-1.792-2.611-2.845-3.389-2.416l-1.755.97" transform="translate(-1507.047 -1364.586)" fill="none" stroke="#131523" stroke-linecap="round" stroke-linejoin="round" stroke-width="0.5"/>
    <path id="Path_102" data-name="Path 102" d="M1521.212,1368.668a6.553,6.553,0,0,1,2.7,2.705c.118.213.228.427.328.638a.732.732,0,0,0,1.013.322l3.236-1.788a.729.729,0,0,0,.312-.946c-.111-.24-.234-.481-.367-.723a6.551,6.551,0,0,0-2.7-2.705Z" transform="translate(-1506.493 -1365.087)" fill="none" stroke="#131523" stroke-linecap="round" stroke-linejoin="round" stroke-width="0.5"/>
    <path id="Path_103" data-name="Path 103" d="M1521.982,1372.136a5.339,5.339,0,0,0-1.21-1.1" transform="translate(-1506.53 -1364.681)" fill="none" stroke="#131523" stroke-linecap="round" stroke-linejoin="round" stroke-width="0.5"/>
    <path id="Path_104" data-name="Path 104" d="M1523.974,1377.185a7.066,7.066,0,0,0-1.047-3.605q-.169-.306-.349-.587" transform="translate(-1506.379 -1364.518)" fill="none" stroke="#131523" stroke-linecap="round" stroke-linejoin="round" stroke-width="0.5"/>
    <path id="Path_105" data-name="Path 105" d="M1514.652,1376.856c-.7-1.764-.753-3.29-.039-3.683.889-.491,2.625.954,3.88,3.226s1.551,4.512.663,5c-.714.394-1.977-.463-3.1-2" transform="translate(-1507.086 -1364.511)" fill="none" stroke="#131523" stroke-linecap="round" stroke-linejoin="round" stroke-width="0.5"/>
    <path id="Path_106" data-name="Path 106" d="M1522.532,1367.748a6.546,6.546,0,0,1,2.7,2.705" transform="translate(-1506.383 -1364.955)" fill="none" stroke="#131523" stroke-linecap="round" stroke-linejoin="round" stroke-width="0.5"/>
    <path id="Path_107" data-name="Path 107" d="M1523.925,1366.978a5.121,5.121,0,0,1,1.849,1.494" transform="translate(-1506.267 -1365.02)" fill="none" stroke="#131523" stroke-linecap="round" stroke-linejoin="round" stroke-width="0.5"/>
    <path id="Path_108" data-name="Path 108" d="M1511.523,1386.6a1.948,1.948,0,1,1-3.9,0c0-1.624,1.948-3.444,1.948-3.444S1511.523,1385.071,1511.523,1386.6Z" transform="translate(-1507.626 -1363.671)" fill="none" stroke="#131523" stroke-linecap="round" stroke-linejoin="round" stroke-width="0.5"/>
  </g>
</svg>
