<svg xmlns="http://www.w3.org/2000/svg" width="28.337" height="27.716" viewBox="0 0 28.337 27.716">
  <g id="Group_10947" data-name="Group 10947" transform="translate(0.32 0.29)">
    <g id="Group_10942" data-name="Group 10942" transform="translate(11.531 0)" opacity="0.5">
      <path id="Path_109" data-name="Path 109" d="M1570.412,1374.557a3.333,3.333,0,0,1,2.7-3.861l5.583-.984a3.333,3.333,0,0,1,3.861,2.7l1.051,11.812a1.346,1.346,0,0,1-1.107,1.445l-5.461.963" transform="translate(-1567.383 -1364.198)" fill="none" stroke="#131523" stroke-linecap="round" stroke-linejoin="round" stroke-width="0.5"/>
      <line id="Line_75" data-name="Line 75" x2="0.335" y2="3.764" transform="translate(13.867 13.878)" fill="none" stroke="#131523" stroke-linecap="round" stroke-linejoin="round" stroke-width="0.5"/>
      <path id="Path_110" data-name="Path 110" d="M1578.347,1371.617a2.312,2.312,0,0,1,1.844,1.87l.181,2.034" transform="translate(-1566.717 -1364.035)" fill="none" stroke="#131523" stroke-linecap="round" stroke-linejoin="round" stroke-width="0.5"/>
      <path id="Rectangle_1770" data-name="Rectangle 1770" d="M0,0H4.262a0,0,0,0,1,0,0V.948a.654.654,0,0,1-.654.654H.654A.654.654,0,0,1,0,.948V0A0,0,0,0,1,0,0Z" transform="matrix(-0.985, 0.174, -0.174, -0.985, 10.622, 5.635)" fill="none" stroke="#131523" stroke-linecap="round" stroke-linejoin="round" stroke-width="0.5"/>
      <path id="Rectangle_1771" data-name="Rectangle 1771" d="M0,0H2.813a0,0,0,0,1,0,0V3.594a.654.654,0,0,1-.654.654H.654A.654.654,0,0,1,0,3.594V0A0,0,0,0,1,0,0Z" transform="matrix(-0.985, 0.174, -0.174, -0.985, 9.63, 4.183)" fill="none" stroke="#131523" stroke-linecap="round" stroke-linejoin="round" stroke-width="0.5"/>
      <line id="Line_76" data-name="Line 76" y1="0.258" x2="1.464" transform="translate(9.262 1.833)" fill="none" stroke="#131523" stroke-linecap="round" stroke-linejoin="round" stroke-width="0.5"/>
      <line id="Line_77" data-name="Line 77" y1="0.255" x2="1.445" transform="translate(5.046 2.58)" fill="none" stroke="#131523" stroke-linecap="round" stroke-linejoin="round" stroke-width="0.5"/>
      <ellipse id="Ellipse_15" data-name="Ellipse 15" cx="2.434" cy="1.448" rx="2.434" ry="1.448" transform="matrix(0.985, -0.174, 0.174, 0.985, 0, 2.254)" fill="none" stroke="#131523" stroke-linecap="round" stroke-linejoin="round" stroke-width="0.5"/>
      <ellipse id="Ellipse_16" data-name="Ellipse 16" cx="0.266" cy="0.447" rx="0.266" ry="0.447" transform="matrix(0.985, -0.174, 0.174, 0.985, 7.426, 1.311)" fill="none" stroke="#131523" stroke-linecap="round" stroke-linejoin="round" stroke-width="0.5"/>
    </g>
    <g id="Group_10946" data-name="Group 10946" transform="translate(0 11.147)">
      <path id="Path_111" data-name="Path 111" d="M1576.805,1383.439s-1.728,4.385-2.085,5.366a2.437,2.437,0,0,1-2.551,1.594l-8.386-1.479a2.221,2.221,0,0,1-1.853-2.369l-.125-5.757" transform="translate(-1556.566 -1374.417)" fill="none" stroke="#131523" stroke-linecap="round" stroke-linejoin="round" stroke-width="0.5"/>
      <rect id="Rectangle_1772" data-name="Rectangle 1772" width="7.017" height="2.089" rx="0.363" transform="matrix(0.985, 0.174, -0.174, 0.985, 8.801, 9.832)" fill="none" stroke="#131523" stroke-linecap="round" stroke-linejoin="round" stroke-width="0.5"/>
      <g id="Group_10943" data-name="Group 10943" transform="translate(7.525)">
        <path id="Path_112" data-name="Path 112" d="M1566.856,1379.572l-.548-.1a1.07,1.07,0,0,1-.836-1.261h0a1.07,1.07,0,0,1,1.217-.9l3.114.549" transform="translate(-1563.787 -1374.709)" fill="none" stroke="#131523" stroke-linecap="round" stroke-linejoin="round" stroke-width="0.5"/>
        <path id="Path_113" data-name="Path 113" d="M1570.969,1378.051l1.705.3a1.07,1.07,0,0,1,.836,1.26h0a1.07,1.07,0,0,1-1.218.9l-3.936-.693" transform="translate(-1563.545 -1374.646)" fill="none" stroke="#131523" stroke-linecap="round" stroke-linejoin="round" stroke-width="0.5"/>
        <path id="Path_114" data-name="Path 114" d="M1571.4,1378.372l.243.043a.681.681,0,0,0,.775-.573h0c.351-1.988-3.69-.94-3.033-2.931a2.17,2.17,0,0,0-2.242,2h0a.682.682,0,0,0,.533.8l.842.148" transform="translate(-1563.647 -1374.908)" fill="none" stroke="#131523" stroke-linecap="round" stroke-linejoin="round" stroke-width="0.5"/>
        <path id="Path_115" data-name="Path 115" d="M1563.915,1380.217l.038-.216a1.07,1.07,0,0,1,1.217-.9l1.815.32" transform="translate(-1563.915 -1374.56)" fill="none" stroke="#131523" stroke-linecap="round" stroke-linejoin="round" stroke-width="0.5"/>
        <path id="Path_116" data-name="Path 116" d="M1568.357,1379.681l5.2.917a1.287,1.287,0,0,1,.8,1.476" transform="translate(-1563.545 -1374.51)" fill="none" stroke="#131523" stroke-linecap="round" stroke-linejoin="round" stroke-width="0.5"/>
      </g>
      <g id="Group_10944" data-name="Group 10944" transform="translate(0 0.325)">
        <path id="Path_117" data-name="Path 117" d="M1558.362,1387.251l-.074.109A.2.2,0,0,0,1558.362,1387.251Z" transform="translate(-1556.859 -1374.204)" fill="none" stroke="#131523" stroke-linecap="round" stroke-linejoin="round" stroke-width="0.5"/>
        <path id="Path_118" data-name="Path 118" d="M1565.491,1377.968l1.492-2.186s-2.491-1.434-3.627.232l-6.065,8.888c-1.137,1.666,1.107,3.463,1.107,3.463l2.87-4.207" transform="translate(-1556.969 -1375.208)" fill="none" stroke="#131523" stroke-linecap="round" stroke-linejoin="round" stroke-width="0.5"/>
      </g>
      <path id="Path_119" data-name="Path 119" d="M1576.805,1383.44c-.049.276-3.446-.092-7.588-.822s-7.461-1.547-7.412-1.823" transform="translate(-1556.566 -1374.417)" fill="none" stroke="#131523" stroke-linecap="round" stroke-linejoin="round" stroke-width="0.5"/>
      <path id="Path_120" data-name="Path 120" d="M1562.843,1380.729c-.646-.038-1.023-.017-1.038.074" transform="translate(-1556.566 -1374.424)" fill="none" stroke="#131523" stroke-linecap="round" stroke-linejoin="round" stroke-width="0.5"/>
      <path id="Path_121" data-name="Path 121" d="M1575.723,1383.276c.016-.093-.329-.244-.95-.432" transform="translate(-1555.484 -1374.247)" fill="none" stroke="#131523" stroke-linecap="round" stroke-linejoin="round" stroke-width="0.5"/>
      <g id="Group_10945" data-name="Group 10945" transform="translate(6.208 5.147)">
        <path id="Path_122" data-name="Path 122" d="M1574.767,1383.409l.267-1.508c.013-.078-.281-.271-1.135-.422" transform="translate(-1561.765 -1379.507)" fill="none" stroke="#131523" stroke-linecap="round" stroke-linejoin="round" stroke-width="0.5"/>
        <path id="Path_123" data-name="Path 123" d="M1562.7,1381.215l.257-1.457c.013-.078.3-.168,1.158-.017" transform="translate(-1562.699 -1379.659)" fill="none" stroke="#131523" stroke-linecap="round" stroke-linejoin="round" stroke-width="0.5"/>
      </g>
      <path id="Path_124" data-name="Path 124" d="M1575.947,1382.046c-.042.24-2.99-.08-6.583-.714s-6.472-1.341-6.429-1.581" transform="translate(-1556.472 -1374.504)" fill="none" stroke="#131523" stroke-linecap="round" stroke-linejoin="round" stroke-width="0.5"/>
    </g>
  </g>
</svg>
