<svg xmlns="http://www.w3.org/2000/svg" width="22.185" height="22.371" viewBox="0 0 22.185 22.371">
  <g id="Discount" transform="translate(-189.582 -362.453)">
    <path id="Stroke_1" data-name="Stroke 1" d="M192.589,368.023a2.568,2.568,0,0,1,2.566-2.567h1.169a2.564,2.564,0,0,0,1.809-.743l.817-.821a2.567,2.567,0,0,1,3.625-.01l.011.01.817.817a2.565,2.565,0,0,0,1.808.746h1.168a2.569,2.569,0,0,1,2.568,2.567v1.167a2.569,2.569,0,0,0,.745,1.809l.818.818a2.568,2.568,0,0,1,.01,3.631l-.01.01-.818.817a2.562,2.562,0,0,0-.745,1.808v1.168a2.568,2.568,0,0,1-2.568,2.567h-1.163a2.567,2.567,0,0,0-1.809.747l-.817.816a2.568,2.568,0,0,1-3.63.012v0l-.011-.01-.816-.816a2.563,2.563,0,0,0-1.808-.747h-1.168a2.568,2.568,0,0,1-2.566-2.567v-1.167a2.563,2.563,0,0,0-.747-1.808l-.817-.818a2.567,2.567,0,0,1-.012-3.63h0l.011-.01.82-.817a2.567,2.567,0,0,0,.747-1.809v-1.167" fill="none" stroke="#131523" stroke-linecap="round" stroke-linejoin="round" stroke-width="1"/>
    <g id="Group_10859" data-name="Group 10859">
      <path id="Stroke_3" data-name="Stroke 3" d="M197.852,376.553l5.836-5.836" fill="none" stroke="#131523" stroke-linecap="round" stroke-linejoin="round" stroke-width="1.5"/>
      <path id="Stroke_3-2" data-name="Stroke 3-2" d="M198.009,370.717l-.006.01" fill="none" stroke="#131523" stroke-linecap="round" stroke-linejoin="round" stroke-width="1.5"/>
      <path id="Stroke_3-3" data-name="Stroke 3-3" d="M203.67,376.385l.01-.038" fill="none" stroke="#131523" stroke-linecap="round" stroke-linejoin="round" stroke-width="1.5"/>
    </g>
  </g>
</svg>
