<svg xmlns="http://www.w3.org/2000/svg" width="32" height="32" viewBox="0 0 32 32">
  <g id="Group_10961" data-name="Group 10961" transform="translate(-213 -273)">
    <circle id="Ellipse_11" data-name="Ellipse 11" cx="16" cy="16" r="16" transform="translate(213 273)" fill="#0062ff"/>
    <g id="Location" transform="translate(220.761 279.261)">
      <path id="Path_33958" d="M0,7.652A7.678,7.678,0,1,1,15.357,7.7v.087a11.338,11.338,0,0,1-3.478,7.3,20.183,20.183,0,0,1-3.591,2.957.93.93,0,0,1-1.217,0,19.817,19.817,0,0,1-5.052-4.73A9.826,9.826,0,0,1,0,7.678Z" transform="translate(0.739 0.739)" fill="none" stroke="#fff" stroke-linecap="round" stroke-linejoin="round" stroke-miterlimit="10" stroke-width="1"/>
      <circle id="Ellipse_740" cx="2.461" cy="2.461" r="2.461" transform="translate(5.957 6.078)" fill="none" stroke="#fff" stroke-linecap="round" stroke-linejoin="round" stroke-miterlimit="10" stroke-width="1"/>
    </g>
  </g>
</svg>
