<svg xmlns="http://www.w3.org/2000/svg" width="32" height="32" viewBox="0 0 32 32">
  <g id="Iconly_Light_Chat" data-name="Iconly/Light/Chat" transform="translate(6 6)">
    <path id="Path_139" data-name="Path 139" d="M16,0A16,16,0,0,1,32,16c0,3.561-3.311,9.748-3.311,9.748S21.275,32,16,32A16,16,0,0,1,16,0Z" transform="translate(-6 -6)" fill="#0062ff"/>
    <path id="Stroke_7" data-name="Stroke 7" d="M10.02,0A10.006,10.006,0,0,0,0,10.015a10.584,10.584,0,0,0,1.35,5,1.051,1.051,0,0,1,.07.9L.75,18.157a.624.624,0,0,0,.82.78l2.02-.6a1.7,1.7,0,0,1,1.49.361A10,10,0,1,0,10.02,0Z" fill="none" stroke="#fff" stroke-linecap="round" stroke-linejoin="round" stroke-miterlimit="10" stroke-width="1"/>
    <line id="Line_30" data-name="Line 30" transform="translate(5 10.096)" fill="none" stroke="#fff" stroke-linecap="round" stroke-width="2"/>
    <line id="Line_31" data-name="Line 31" transform="translate(10 10.096)" fill="none" stroke="#fff" stroke-linecap="round" stroke-width="2"/>
    <line id="Line_32" data-name="Line 32" transform="translate(15 10.096)" fill="none" stroke="#fff" stroke-linecap="round" stroke-width="2"/>
  </g>
</svg>
