<svg xmlns="http://www.w3.org/2000/svg" width="19.667" height="19.499" viewBox="0 0 19.667 19.499">
  <g id="Discount" transform="translate(-0.25 -0.251)">
    <path id="Stroke_1" data-name="Stroke 1" d="M2.044,4.305A2.262,2.262,0,0,1,4.305,2.043H5.334a2.262,2.262,0,0,0,1.593-.657l.719-.72a2.262,2.262,0,0,1,3.2-.008l.009.008.72.72a2.258,2.258,0,0,0,1.593.657h1.028a2.262,2.262,0,0,1,2.262,2.262V5.332a2.26,2.26,0,0,0,.657,1.594l.72.72a2.262,2.262,0,0,1,.009,3.2l-.009.009-.72.72a2.256,2.256,0,0,0-.657,1.592v1.029a2.261,2.261,0,0,1-2.262,2.261H13.166a2.259,2.259,0,0,0-1.593.658l-.72.719a2.261,2.261,0,0,1-3.2.009l-.009-.009-.719-.719a2.263,2.263,0,0,0-1.593-.658H4.305a2.261,2.261,0,0,1-2.261-2.261V13.165a2.257,2.257,0,0,0-.658-1.592l-.719-.72a2.261,2.261,0,0,1-.009-3.2l.009-.009.719-.72a2.261,2.261,0,0,0,.658-1.594V4.305" transform="translate(0.75 0.751)" fill="none" stroke="#131523" stroke-linecap="round" stroke-linejoin="round" stroke-miterlimit="10" stroke-width="1"/>
    <text id="NEW" transform="translate(9.75 11.75)" fill="#131523" font-size="5" font-family="Helvetica-Bold, Helvetica" font-weight="700"><tspan x="-5.833" y="0">NEW</tspan></text>
  </g>
</svg>
