<svg id="Component_4_3" data-name="Component 4 – 3" xmlns="http://www.w3.org/2000/svg" width="24" height="24" viewBox="0 0 24 24">
  <rect id="Rectangle_1726" data-name="Rectangle 1726" width="24" height="24" fill="none"/>
  <g id="Show" transform="translate(2.25 3.834)">
    <path id="Stroke_1" data-name="Stroke 1" d="M6.323,3.162A3.162,3.162,0,1,1,3.161,0,3.162,3.162,0,0,1,6.323,3.162Z" transform="translate(6.839 4.891)" fill="none" stroke="#131523" stroke-linecap="round" stroke-linejoin="round" stroke-miterlimit="10" stroke-width="1"/>
    <path id="Stroke_3" data-name="Stroke 3" d="M9.248,14.6c3.808,0,7.291-2.738,9.252-7.3C16.539,2.738,13.056,0,9.248,0h0C5.444,0,1.961,2.738,0,7.3c1.961,4.564,5.444,7.3,9.252,7.3Z" transform="translate(0.75 0.751)" fill="none" stroke="#131523" stroke-linecap="round" stroke-linejoin="round" stroke-miterlimit="10" stroke-width="1"/>
  </g>
  <g id="Hide" transform="translate(2.25 3.25)" opacity="0">
    <path id="Stroke_1-2" data-name="Stroke 1" d="M.925,5.395A3.123,3.123,0,0,1,0,3.166,3.16,3.16,0,0,1,5.394.925" transform="translate(6.836 5.472)" fill="none" stroke="#131523" stroke-linecap="round" stroke-linejoin="round" stroke-miterlimit="10" stroke-width="1"/>
    <path id="Stroke_3-2" data-name="Stroke 3" d="M2.537,0A3.158,3.158,0,0,1,0,2.542" transform="translate(10.568 9.199)" fill="none" stroke="#131523" stroke-linecap="round" stroke-linejoin="round" stroke-miterlimit="10" stroke-width="1"/>
    <path id="Stroke_5" data-name="Stroke 5" d="M3.9,12.638A13.43,13.43,0,0,1,0,7.3,13.592,13.592,0,0,1,3.934,1.938,8.534,8.534,0,0,1,9.25,0a8.554,8.554,0,0,1,5.336,1.957" transform="translate(0.75 1.334)" fill="none" stroke="#131523" stroke-linecap="round" stroke-linejoin="round" stroke-miterlimit="10" stroke-width="1"/>
    <path id="Stroke_7" data-name="Stroke 7" d="M9.98,0a15.359,15.359,0,0,1,1.8,3.146c-1.967,4.557-5.443,7.3-9.25,7.3A7.981,7.981,0,0,1,0,10.035" transform="translate(7.468 5.491)" fill="none" stroke="#131523" stroke-linecap="round" stroke-linejoin="round" stroke-miterlimit="10" stroke-width="1"/>
    <path id="Stroke_9" data-name="Stroke 9" d="M15.774,0,0,15.774" transform="translate(2.113 0.75)" fill="none" stroke="#131523" stroke-linecap="round" stroke-linejoin="round" stroke-miterlimit="10" stroke-width="1"/>
  </g>
</svg>
