<svg xmlns="http://www.w3.org/2000/svg" width="17.335" height="25" viewBox="0 0 17.335 25">
  <g id="Group_11119" data-name="Group 11119" transform="translate(0.5 0.5)">
    <path id="Path_12679" data-name="Path 12679" d="M9,12.16H5.662A5.162,5.162,0,0,1,.5,7V4.8H14.165V7A5.162,5.162,0,0,1,9,12.16Z" transform="translate(-0.5 -0.5)" fill="none" stroke="#1162fb" stroke-linecap="round" stroke-linejoin="round" stroke-width="1"/>
    <path id="Path_12680" data-name="Path 12680" d="M7.628,21.779H7.036A2.721,2.721,0,0,0,4.315,24.5h6.034A2.721,2.721,0,0,0,7.628,21.779Z" transform="translate(-0.5 -0.5)" fill="none" stroke="#1162fb" stroke-linecap="round" stroke-linejoin="round" stroke-width="1"/>
    <rect id="Rectangle_1888" data-name="Rectangle 1888" width="1.933" height="9.619" transform="translate(5.866 11.66)" fill="none" stroke="#1162fb" stroke-linecap="round" stroke-linejoin="round" stroke-width="1"/>
    <line id="Line_151" data-name="Line 151" x1="3.116" transform="translate(5.274 7.981)" fill="none" stroke="#1162fb" stroke-linecap="round" stroke-linejoin="round" stroke-width="1"/>
    <line id="Line_152" data-name="Line 152" y2="3.116" transform="translate(6.832 6.423)" fill="none" stroke="#1162fb" stroke-linecap="round" stroke-linejoin="round" stroke-width="1"/>
    <path id="Path_12681" data-name="Path 12681" d="M9.377,1.9c0,.774-1,1.4-2.225,1.4S4.928,2.675,4.928,1.9,5.924.5,7.152.5,9.377,1.127,9.377,1.9Z" transform="translate(-0.5 -0.5)" fill="none" stroke="#1162fb" stroke-linecap="round" stroke-linejoin="round" stroke-width="1"/>
    <path id="Path_12682" data-name="Path 12682" d="M6.366,15.27c-1.783.678-2.841,1.592-2.05,3.515.886,2.156,4.76,1.77,7.386-.946" transform="translate(-0.5 -0.5)" fill="none" stroke="#1162fb" stroke-linecap="round" stroke-linejoin="round" stroke-width="1"/>
    <path id="Path_12683" data-name="Path 12683" d="M9.377,1.9c3.208,0,7.458-.981,7.458,5.385,0,5.23-4.787,6.322-8.512,7.379" transform="translate(-0.5 -0.5)" fill="none" stroke="#1162fb" stroke-linecap="round" stroke-linejoin="round" stroke-width="1"/>
  </g>
</svg>
