<svg xmlns="http://www.w3.org/2000/svg" width="25" height="21.716" viewBox="0 0 25 21.716">
  <g id="Group_11105" data-name="Group 11105" transform="translate(0.5 0.5)">
    <g id="Group_11106" data-name="Group 11106">
      <path id="Path_12670" data-name="Path 12670" d="M6.5,7.35a3,3,0,1,1-6,0Z" transform="translate(-0.5 -0.5)" fill="none" stroke="#1162fb" stroke-linecap="round" stroke-linejoin="round" stroke-width="1"/>
      <path id="Path_12671" data-name="Path 12671" d="M12.5,7.35a3,3,0,1,1-6,0Z" transform="translate(-0.5 -0.5)" fill="none" stroke="#1162fb" stroke-linecap="round" stroke-linejoin="round" stroke-width="1"/>
      <path id="Path_12672" data-name="Path 12672" d="M18.5,7.35a3,3,0,1,1-6,0Z" transform="translate(-0.5 -0.5)" fill="none" stroke="#1162fb" stroke-linecap="round" stroke-linejoin="round" stroke-width="1"/>
      <path id="Path_12673" data-name="Path 12673" d="M24.5,7.35a3,3,0,1,1-6,0Z" transform="translate(-0.5 -0.5)" fill="none" stroke="#1162fb" stroke-linecap="round" stroke-linejoin="round" stroke-width="1"/>
      <path id="Path_12674" data-name="Path 12674" d="M18.618.5H6.382A2.551,2.551,0,0,0,4.25,1.65L.5,7.35h24l-3.75-5.7A2.551,2.551,0,0,0,18.618.5Z" transform="translate(-0.5 -0.5)" fill="none" stroke="#1162fb" stroke-linecap="round" stroke-linejoin="round" stroke-width="1"/>
      <path id="Path_12675" data-name="Path 12675" d="M2,9.959v8.7a2.552,2.552,0,0,0,2.552,2.552H20.446A2.552,2.552,0,0,0,23,18.663v-8.7" transform="translate(-0.5 -0.5)" fill="none" stroke="#1162fb" stroke-linecap="round" stroke-linejoin="round" stroke-width="1"/>
      <path id="Path_12676" data-name="Path 12676" d="M11.246,21.216V12.752H5.99v8.464" transform="translate(-0.5 -0.5)" fill="none" stroke="#1162fb" stroke-linecap="round" stroke-linejoin="round" stroke-width="1"/>
      <rect id="Rectangle_1871" data-name="Rectangle 1871" width="5.256" height="4.531" transform="translate(13.344 12.252)" fill="none" stroke="#1162fb" stroke-linecap="round" stroke-linejoin="round" stroke-width="1"/>
    </g>
  </g>
</svg>
